<?xml version="1.0" encoding="utf-8"?>
<!-- Generator: Adobe Illustrator 25.2.0, SVG Export Plug-In . SVG Version: 6.00 Build 0)  -->
<svg version="1.1" id="Layer_1" xmlns="http://www.w3.org/2000/svg" xmlns:xlink="http://www.w3.org/1999/xlink" x="0px" y="0px"
	 viewBox="0 0 336.1 336.1" style="enable-background:new 0 0 336.1 336.1;" xml:space="preserve">
<style type="text/css">
	.st0{fill:#FFFFFF;}
</style>
<path class="st0" d="M335.8,322.4c-0.8-3.1-2.8-6.2-5-8.5c-47.5-47.6-95.1-95.2-142.6-142.7c-1-1-1.9-2-3.1-3.3l3.3-3.2
	c0.1-0.1,0.1-0.1,0.2-0.2c0.3-0.3,0.7-0.7,1-1l0.1-0.1l0,0c46.8-46.8,93.7-93.7,140.5-140.5c1.2-1.1,2.4-2.2,3.4-3.5
	c5.2-6.7,2.2-16.3-5.9-18.8c-5.5-1.7-9.6,0.5-13.4,4.3c-23.8,23.8-47.6,47.7-71.4,71.5c-22.6,22.6-31,28.4-66.2,65.9l0,0l-8.5,8.8
	c-0.4-0.3-0.8-0.7-1.3-1.1c-1.1-1.1-1.9-2-2-2.1C117.6,100.7,70.4,53.5,23.2,6.3c-1-1-1.9-2-3-2.9c-4-3.1-8.4-3.7-13-1.4
	C2.6,4.4,0,8.4,0.9,13.4c0.6,3.2,2.4,6.7,4.7,9c46.2,46.5,92.6,92.8,139,139.1c0.1,0.1,0.3,0.3,0.4,0.4h0l0,0c1,1,2,2,3,2.9
	c0.3,0.3,0.5,0.5,0.9,0.7l2.5,2.4l-3.3,3.3c0,0-0.1,0.1-0.1,0.1c-1.3,1.3-2.7,2.7-4,4l-1,1l0,0C97.1,222,51.4,267.7,5.7,313.4
	c-1,1-2,1.9-2.9,3c-5.6,6.8-2.5,16.8,6,19.2c1.7,0.5,3.2,0.6,4.6,0.4c4.5-0.6,7.6-3.9,8.4-4.8c44.8-47.8,94.7-90.8,138.8-139.1l0,0
	l7.4-7.3c1.5,1.8,2.4,2.9,3.4,3.8c47.3,47.3,94.6,94.6,141.9,141.9c1.1,1.1,2.1,2.2,3.3,3.1c3.9,3.1,9.1,3.4,13.4,1
	C334.3,332,337.1,327.1,335.8,322.4z"/>
</svg>
