<?xml version="1.0" encoding="utf-8"?>
<!-- Generator: Adobe Illustrator 25.2.0, SVG Export Plug-In . SVG Version: 6.00 Build 0)  -->
<svg version="1.1" id="Layer_1" xmlns="http://www.w3.org/2000/svg" xmlns:xlink="http://www.w3.org/1999/xlink" x="0px" y="0px"
	 viewBox="0 0 1151.23 1009.32" style="enable-background:new 0 0 1151.23 1009.32;" xml:space="preserve">
<g>
	<path d="M87.96,829.56c0.81-10.28,1.24-20.6,2.51-30.83c3.15-25.41,9.88-49.58,26.01-70.23c13.61-17.42,31.7-27.64,52.92-32.69
		c14.43-3.44,29.1-4.3,43.92-3.76c17.86,0.65,35.59,2.04,52.69,7.68c3.91,1.29,7.61,3.21,11.41,4.84c2.44,1.04,2.9,2.99,2.35,5.31
		c-3.13,13.13-6.38,26.23-9.37,39.39c-0.82,3.61-2.89,4.41-5.84,3.39c-10.56-3.67-21.42-5.94-32.55-6.6
		c-13.13-0.77-26.3-1.38-39.28,1.56c-21.35,4.84-34.45,18.56-41.01,38.93c-6.73,20.92-6.83,42.46-5.24,64.07
		c1.01,13.69,3.74,27.02,10.1,39.36c9.38,18.18,24.7,27.04,44.83,27.35c9.49,0.15,18.99-0.93,28.48-1.52
		c1.3-0.08,2.56-0.6,3.98-0.95c0-17.59,0-35.03,0-53.09c-1.32,0-2.6,0-3.87,0c-9.27,0-18.54,0.03-27.82-0.01
		c-4.71-0.02-6.01-1.32-6.02-5.96c-0.03-12.63-0.03-25.26,0-37.89c0.01-5.24,0.93-6.16,6.03-6.16c27.65-0.01,55.3-0.01,82.95,0
		c4.74,0,5.38,0.61,5.38,5.38c0.02,43.13-0.01,86.26,0.06,129.39c0,2.57-0.76,4.25-3.01,5.55c-15.62,8.98-32.41,14.46-50.19,17.08
		c-3.3,0.49-6.6,1.02-9.9,1.54c-10.48,0-20.97,0-31.45,0c-1.17-0.24-2.34-0.52-3.53-0.72c-8.55-1.42-17.27-2.2-25.64-4.35
		c-24.71-6.33-44.66-19.69-58.26-41.64c-10.47-16.89-15.71-35.61-18.14-55.14c-1.26-10.08-1.7-20.27-2.51-30.4
		C87.96,835.48,87.96,832.52,87.96,829.56z"/>
	<path d="M1042.03,970.69c-5.26-0.94-10.56-1.67-15.76-2.85c-12.15-2.78-23.28-7.85-33.56-16.01c-0.54,3.1-1.01,5.68-1.45,8.27
		c-0.86,5-1.69,5.71-6.91,5.72c-9.27,0.02-18.55,0.01-27.82,0c-6.52,0-7.23-0.7-7.23-7.08c0-66.79,0-133.58,0-200.37
		c0-16.8-0.01-33.6,0-50.4c0-4.92,0.91-5.85,5.87-5.86c14.78-0.03,29.57-0.02,44.35,0c5.81,0.01,6.26,0.47,6.27,6.18
		c0.01,26.47,0,52.95,0,79.42c0,1.44,0,2.88,0,4.35c7.44-2.8,14.39-5.89,21.61-8.04c14.11-4.19,28.52-4.74,42.96-1.71
		c22.33,4.69,36,18.95,43.3,39.92c4.35,12.49,6.36,25.43,6.46,38.66c0.14,17.31,0.36,34.62-3.05,51.74
		c-2.21,11.08-5.32,21.8-11.15,31.6c-9.45,15.89-23.97,23.47-41.82,25.66c-1.45,0.18-2.89,0.52-4.33,0.79
		C1053.86,970.69,1047.94,970.69,1042.03,970.69z M1004.97,875.65c0,12.09,0.19,24.18-0.11,36.25c-0.1,3.9,1.33,5.73,4.67,7.22
		c9.88,4.41,20.15,6.2,30.91,5.58c10.13-0.58,17.17-5.36,20.02-15.03c1.95-6.62,3.15-13.59,3.65-20.47
		c1.03-14.31,1.49-28.67-2.65-42.7c-3.2-10.85-11.27-18.56-20.28-19.36c-11.46-1.02-22.38,0.85-32.75,5.95
		c-2.42,1.19-3.59,2.56-3.55,5.5C1005.08,850.94,1004.97,863.3,1004.97,875.65z"/>
	<path d="M811.37,970.69c-4.82-1-9.7-1.78-14.45-3.03c-21.59-5.65-34.36-20.11-37.08-42.33c-0.93-7.57-1.46-15.23-1.49-22.85
		c-0.15-36.42-0.07-72.84-0.07-109.26c0-6.05,1-7.07,6.91-7.08c14.51-0.01,29.03-0.01,43.54,0c5.41,0,6.54,1.14,6.54,6.64
		c0.01,35.48-0.02,70.96,0.04,106.43c0.01,3.47,0.11,7.01,0.76,10.4c1.78,9.24,5.93,13.59,15.02,14.81
		c12.35,1.65,24.03-0.97,34.57-7.68c1.26-0.8,2.02-3.29,2.03-5c0.11-39.37,0.09-78.75,0.09-118.13c0-7.02,0.45-7.48,7.52-7.48
		c13.84,0,27.69-0.01,41.53,0c5.99,0.01,6.7,0.73,6.7,6.7c0,55.5,0,111,0,166.5c0,5.99-0.49,6.48-6.38,6.48
		c-9,0.01-18.01-0.1-27.01,0.05c-3.52,0.06-5.17-1.27-5.45-4.81c-0.19-2.46-0.93-4.88-1.51-7.72
		c-10.84,6.56-21.77,11.49-33.55,14.34c-4.66,1.13-9.37,2-14.06,2.99C827.5,970.69,819.44,970.69,811.37,970.69z"/>
	<path d="M483.13,970.69c-6.6-1.02-13.29-1.65-19.78-3.14c-21.59-4.96-35.31-20.12-38.26-42.24c-0.94-7.02-1.47-14.15-1.53-21.23
		c-0.19-22.04-0.07-44.08-0.07-66.11c0-1.47,0-2.94,0-5.13c-3.51,0-6.8,0-10.1,0c-4.97,0-9.95-0.04-14.92,0.01
		c-2.78,0.03-4.4-1.2-4.42-4.01c-0.09-10.3-0.13-20.61-0.1-30.91c0.01-3.03,2.37-3.95,4.82-4.55c6.89-1.68,13.76-3.44,20.69-4.92
		c2.93-0.62,4.15-1.7,4.11-4.97c-0.2-14.51-0.09-29.02-0.08-43.54c0-4.91,0.45-5.4,5.19-5.41c15.32-0.02,30.64,0.04,45.96-0.05
		c3.25-0.02,4.53,1.08,4.5,4.46c-0.13,14.24,0.04,28.49-0.12,42.73c-0.04,3.35,0.96,4.42,4.33,4.35
		c10.21-0.19,20.43-0.08,30.64-0.06c4.84,0.01,5.77,0.81,5.79,5.49c0.06,11.96,0.06,23.92,0,35.88c-0.02,4.68-0.95,5.49-5.78,5.5
		c-10.21,0.01-20.43,0.12-30.64-0.06c-3.34-0.06-4.36,0.97-4.34,4.34c0.14,21.77,0.37,43.54-0.03,65.31
		c-0.29,15.9,8.57,21.34,21.56,22.17c4.65,0.3,9.37-0.47,14.06-0.64c5.07-0.18,5.75,0.46,5.77,5.36c0.04,10.21-0.17,20.43,0.1,30.64
		c0.11,4.25-1.59,6.09-5.56,6.75c-7.38,1.22-14.73,2.65-22.1,3.99C489.59,970.69,486.36,970.69,483.13,970.69z"/>
	<path d="M523.74,485.09c-3.45,5.19-7.56,9.96-10.05,15.46c-3.11,6.87-5.08,14.29-7.15,21.58c-0.79,2.79-1.8,4.54-4.68,5.61
		c-14.84,5.51-29.92,8.08-45.63,4.45c-16.95-3.92-29.07-14.38-38.18-28.64c-8.21-12.85-17.74-24.25-31.84-30.95
		c-8.76-4.16-17.93-5.35-27.36-2.75c-5.46,1.51-6.67,4.94-3.16,9.2c2.34,2.85,5,5.82,8.17,7.54c11.83,6.42,19.53,16.64,26.15,27.76
		c4.22,7.09,7.86,14.58,11.21,22.13c8.46,19.08,23.54,29.66,43.31,34.18c15.75,3.6,31.65,3.27,47.57,0.98
		c3.83-0.55,7.68-0.96,11.74-1.47c0.09,0.84,0.27,1.72,0.28,2.61c0.13,17.2-0.15,34.41,0.47,51.59
		c0.54,15.03-10.26,20.66-23.39,16.32c-26.68-8.82-51.53-21.51-74.69-37.42c-37.47-25.75-67.91-58.15-91.14-97.22
		c-20.37-34.27-33.54-71.14-39.57-110.6c-3.48-22.77-4.66-45.65-2.99-68.56c3.68-50.31,18.35-97.21,44.8-140.33
		c14.82-24.16,32.53-45.97,53.32-65.18c27.59-25.49,58.73-45.51,93.62-59.7c23.52-9.56,47.81-16.16,72.88-19.84
		c21.82-3.2,43.82-4.04,65.8-2.39c62.04,4.67,118.09,25.62,167.36,63.7c47.84,36.97,81.92,84.18,102.48,141.06
		c8.54,23.61,13.96,48.01,16.37,72.98c3.49,36.29,0.93,72.2-8.12,107.59c-10.92,42.74-30.05,81.48-57.53,115.9
		c-35.56,44.53-79.93,77.22-133.47,97.18c-3.74,1.39-7.48,2.99-11.37,3.76c-13.53,2.7-20-5.69-19.85-17.17
		c0.38-28.2,0.75-56.4,0.53-84.6c-0.14-17.24-3.54-33.82-14.33-48.02c-1.68-2.21-3.62-4.22-5.73-6.67
		c6.98-1.08,13.58-1.96,20.13-3.15c25.12-4.54,49.09-12.11,69.91-27.52c21.96-16.25,35.66-38.16,43.02-64.18
		c7-24.77,9.24-50.11,6.31-75.63c-2.72-23.7-12.16-44.79-27.95-62.86c-1.65-1.89-2.65-3.46-1.7-6.32
		c8.63-26.05,6.16-51.7-3.44-76.94c-0.48-1.26-2.72-2.49-4.23-2.62c-14.03-1.15-27.26,2.59-39.6,8.54
		c-13.58,6.55-26.47,14.53-39.75,21.73c-1.55,0.84-3.79,1.4-5.4,0.96c-28.44-7.64-57.4-10.58-86.74-9.39
		c-20.76,0.84-41.31,3.61-61.37,9.33c-2.4,0.69-4.35,0.61-6.66-0.91c-16.8-11.06-34.25-20.89-53.61-26.84
		c-8.22-2.53-16.62-4.1-25.33-3.58c-2.5,0.15-3.8,0.92-4.7,3.35c-9.47,25.36-11.64,50.99-2.97,77c0.84,2.52-0.19,3.8-1.47,5.26
		c-13.14,15-21.79,32.28-26.3,51.67c-3.65,15.72-3.48,31.62-2.44,47.6c1.06,16.24,3.8,32.14,9.17,47.51
		c12.27,35.15,36.08,59.15,70.6,72.8c18.41,7.28,37.53,11.45,57.15,13.55C522.81,484.58,523.39,484.96,523.74,485.09z"/>
	<path d="M600.87,800.42c25.73,0,50.84,0,76.64,0c0-1.59,0-3.13,0-4.67c0-29.02,0-58.05,0-87.07c0-5.88,0.65-6.57,6.35-6.57
		c14.65-0.02,29.29-0.02,43.94,0c5.31,0.01,6.13,0.82,6.13,6c0,83.85,0.01,167.69,0,251.54c0,5-1.15,6.16-6.12,6.16
		c-14.78,0.01-29.56,0.02-44.35,0c-5.11-0.01-6.02-0.94-6.02-6.15c0.01-34.12,0.04-68.25,0.06-102.37c0-1.57,0-3.15,0-4.94
		c-25.63,0-50.84,0-76.64,0c0,1.59,0,3.14,0,4.69c0,34,0,67.99,0,101.99c0,5.84-0.94,6.78-6.73,6.78c-14.38,0.01-28.76,0.01-43.14,0
		c-5.67,0-6.56-0.88-6.56-6.43c0-83.71,0-167.42,0-251.14c0-5.27,0.81-6.13,5.97-6.14c14.78-0.02,29.56-0.02,44.35,0
		c5.18,0.01,6.1,0.92,6.1,6.07c0.01,29.02,0.01,58.05,0.01,87.07C600.87,796.84,600.87,798.42,600.87,800.42z"/>
	<path d="M375.22,875.55c0,27.4,0.01,54.81-0.01,82.21c0,6.92-1.04,7.95-7.84,7.95c-13.43,0.01-26.87,0.01-40.3,0
		c-6.58-0.01-8.31-1.71-8.32-8.37c-0.02-54.94-0.01-109.88,0-164.83c0-5.28,1.31-6.54,6.69-6.54c14.51-0.01,29.02-0.01,43.53,0
		c5.84,0,6.25,0.4,6.25,6.16C375.22,819.94,375.22,847.75,375.22,875.55z"/>
	<path d="M347.84,771c-17.19,0.21-31.26-13.72-31.6-31.29c-0.33-17.05,14.03-31.77,31.1-31.9c17.05-0.13,31.51,14.24,31.62,31.41
		C379.06,756.59,365.16,770.79,347.84,771z"/>
</g>
</svg>
